<svg id="Layer_1" data-name="Layer 1" xmlns="http://www.w3.org/2000/svg" viewBox="0 0 752.62 200"><defs><style>.cls-1{fill:#fff;}.cls-2{fill:#a07de2;}.cls-3{fill:#8450d6;}.cls-4{fill:#232323;}</style></defs><rect class="cls-1" width="752.62" height="200"/><polygon class="cls-2" points="246.58 125.48 246.58 142.46 236.87 142.46 219.89 142.46 168.93 142.46 142.24 142.46 142.24 125.48 168.93 125.48 219.89 125.48 236.87 125.48 246.58 125.48"/><polygon class="cls-2" points="246.57 91.51 246.57 108.49 202.9 108.49 185.92 108.49 142.24 108.49 142.24 91.51 202.9 91.51 246.57 91.51"/><polygon class="cls-2" points="246.57 57.54 246.58 74.53 236.87 74.53 168.93 74.53 151.95 74.53 142.24 74.53 142.24 57.54 151.94 57.54 168.94 57.54 236.87 57.54 246.57 57.54"/><rect class="cls-3" x="219.89" y="142.46" width="16.98" height="9.71"/><rect class="cls-3" x="219.89" y="74.53" width="16.98" height="50.96"/><rect class="cls-3" x="219.89" y="47.84" width="16.98" height="9.7"/><rect class="cls-3" x="185.91" y="108.49" width="16.98" height="43.68"/><rect class="cls-3" x="185.91" y="47.84" width="16.98" height="43.68"/><rect class="cls-3" x="151.95" y="142.46" width="16.98" height="9.71"/><rect class="cls-3" x="151.95" y="74.53" width="16.98" height="50.96"/><rect class="cls-3" x="151.94" y="47.83" width="16.99" height="9.71"/><path class="cls-4" d="M365.64,69.33,346,130.81h-9l-15.2-46-15.05,46h-9.55l-18.8-61.48h11.19L302.51,115l.26-4,14.86-41.62h9l14.62,41.24V115l13.45-45.68Z"/><path class="cls-4" d="M429.6,100q0,14.35-7.7,23.23-8.1,9.4-22.32,9.4t-22.32-9.13q-8-8.75-8-23,0-14.61,8-23.62,8.36-9.53,22.71-9.53,14,0,22.06,9.53Q429.61,85.78,429.6,100Zm-10.05-1.3q0-10-4.57-16.19-5-6.78-14.75-6.79-10.58,0-16.05,7.44-4.83,6.53-4.83,17.49,0,10.57,4.7,16.71,5.22,6.92,15.4,6.92,10.44,0,15.66-8Q419.55,109.66,419.55,98.7Z"/><path class="cls-4" d="M486,69.33,463.8,130.81h-9.4L432,69.33h10.84l15.5,42.82.79,5.6,1.05-5.22,15.17-43.2Z"/><path class="cls-4" d="M546,101.7H499.3v.91q0,9.52,5.09,15.66,5.36,6.54,14.75,6.53,11.76,0,15.54-11.36h10.83q-7.44,19.2-27.28,19.19-14.49,0-22.58-9.53-7.57-8.86-7.57-23.62,0-14.1,7.7-22.84,8.22-9.27,22.06-9.27,14.49,0,21.8,10.31Q546,86.68,546,101.7ZM534.68,93q-1.06-16.31-17.76-16.31-16,0-17.62,16.31Z"/><path class="cls-4" d="M610.38,130.81H600.07v-35q0-10-1.44-13.31-2.37-5.48-11.14-5.35-9.32.14-13.9,7.7-3.8,6.14-3.8,16v29.9H559.48V69.33h10.31V77q5.51-9.66,17.94-9.66a25.39,25.39,0,0,1,13.42,3.78,17.81,17.81,0,0,1,8.18,10.32q1,3.52,1,12.66Z"/></svg>