<svg id="Layer_1" data-name="Layer 1" xmlns="http://www.w3.org/2000/svg" viewBox="0 0 200 200"><defs><style>.cls-1{fill:#a07de2;}.cls-2{fill:#8450d6;}</style></defs><polygon class="cls-1" points="160.67 129.63 160.67 149.38 149.38 149.38 129.63 149.38 70.37 149.38 39.33 149.38 39.33 129.63 70.37 129.63 129.63 129.63 149.38 129.63 160.67 129.63"/><polygon class="cls-1" points="160.67 90.13 160.67 109.88 109.88 109.88 90.13 109.88 39.33 109.88 39.33 90.13 109.88 90.13 160.67 90.13"/><polygon class="cls-1" points="160.67 50.62 160.67 70.37 149.38 70.37 70.37 70.37 50.62 70.37 39.33 70.37 39.33 50.62 50.62 50.62 70.38 50.62 149.39 50.62 160.67 50.62"/><rect class="cls-2" x="129.63" y="149.38" width="19.75" height="11.29"/><rect class="cls-2" x="129.63" y="70.37" width="19.75" height="59.26"/><rect class="cls-2" x="129.64" y="39.33" width="19.75" height="11.28"/><rect class="cls-2" x="90.13" y="109.88" width="19.75" height="50.8"/><rect class="cls-2" x="90.13" y="39.33" width="19.75" height="50.8"/><rect class="cls-2" x="50.62" y="149.38" width="19.75" height="11.29"/><rect class="cls-2" x="50.62" y="70.37" width="19.75" height="59.26"/><rect class="cls-2" x="50.62" y="39.33" width="19.76" height="11.29"/></svg>